<svg xmlns="http://www.w3.org/2000/svg" version="1.1" xmlns:xlink="http://www.w3.org/1999/xlink" xmlns:svgjs="http://svgjs.dev/svgjs" width="2000" height="560" viewBox="0 0 2000 560"><g transform="matrix(1,0,0,1,-1.2121212121212466,-0.48526376908114344)"><svg viewBox="0 0 396 111" data-background-color="#bec0d2" preserveAspectRatio="xMidYMid meet" height="560" width="2000" xmlns="http://www.w3.org/2000/svg" xmlns:xlink="http://www.w3.org/1999/xlink"><g id="tight-bounds" transform="matrix(1,0,0,1,0.2400000000000091,0.096186211371446)"><svg viewBox="0 0 395.52 110.80762757725712" height="110.80762757725712" width="395.52"><g><svg viewBox="0 0 635.8750128577594 178.14472494545456" height="110.80762757725712" width="395.52"><g transform="matrix(1,0,0,1,240.3550128577594,24.620580654545464)"><svg viewBox="0 0 395.52 128.90356363636363" height="128.90356363636363" width="395.52"><g id="textblocktransform"><svg viewBox="0 0 395.52 128.90356363636363" height="128.90356363636363" width="395.52" id="textblock"><g><svg viewBox="0 0 395.52 128.90356363636363" height="128.90356363636363" width="395.52"><g transform="matrix(1,0,0,1,0,0)"><svg width="395.52" viewBox="1.65 -35.85 109.99 35.85" height="128.90356363636363" data-palette-color="#000000"><path d="M10.1 0L5.25 0 5.25-35.85 10.1-35.85 10.1 0ZM6.75 0L1.65 0 1.65-2.05Q1.65-2.5 1.85-2.78 2.05-3.05 2.45-3.1L2.45-3.1 6.2-3.9 6.75 0ZM13.75 0L8.65 0 9.2-3.9 12.95-3.1Q13.35-3.05 13.55-2.78 13.75-2.5 13.75-2.05L13.75-2.05 13.75 0ZM1.65-35.85L6.75-35.85 6.2-31.95 2.45-32.75Q2.05-32.85 1.85-33.1 1.65-33.35 1.65-33.8L1.65-33.8 1.65-35.85ZM8.65-35.85L13.75-35.85 13.75-33.8Q13.75-33.35 13.55-33.1 13.35-32.85 12.95-32.75L12.95-32.75 9.2-31.95 8.65-35.85ZM36.8 0L32.4 0 17.8-35.85 21.7-35.85Q22.35-35.85 22.75-35.52 23.15-35.2 23.35-34.7L23.35-34.7 33.45-9.4Q33.8-8.55 34.1-7.55 34.4-6.55 34.65-5.5L34.65-5.5Q34.9-6.55 35.15-7.55 35.4-8.55 35.75-9.4L35.75-9.4 45.85-34.7Q46-35.1 46.42-35.48 46.85-35.85 47.5-35.85L47.5-35.85 51.4-35.85 36.8 0ZM24.6-34.6L20.85-34.6 20.85-35.85 24.6-35.85 24.6-34.6ZM48.65-34.6L44.9-34.6 44.9-35.85 48.65-35.85 48.65-34.6ZM16.05-35.85L21.15-35.85 20.6-31.95 16.85-32.75Q16.45-32.85 16.25-33.1 16.05-33.35 16.05-33.8L16.05-33.8 16.05-35.85ZM22.9-35.85L28-35.85 28-33.8Q28-33.35 27.8-33.1 27.6-32.85 27.2-32.75L27.2-32.75 23.45-31.95 22.9-35.85ZM41.2-35.85L46.3-35.85 45.75-31.95 42-32.75Q41.6-32.85 41.4-33.1 41.2-33.35 41.2-33.8L41.2-33.8 41.2-35.85ZM48.05-35.85L53.15-35.85 53.15-33.8Q53.15-33.35 52.95-33.1 52.75-32.85 52.35-32.75L52.35-32.75 48.6-31.95 48.05-35.85ZM63.95 0L59.05 0 59.05-35.85 69.7-35.85Q74-35.85 76.97-34.55 79.95-33.25 81.5-30.78 83.05-28.3 83.05-24.75L83.05-24.75Q83.05-21.3 81.42-18.75 79.8-16.2 76.8-14.8 73.8-13.4 69.7-13.4L69.7-13.4 63.95-13.4 63.95 0ZM63.95-32L63.95-17.25 69.7-17.25Q72.35-17.25 74.25-18.18 76.15-19.1 77.17-20.78 78.2-22.45 78.2-24.75L78.2-24.75Q78.2-28.15 76.07-30.08 73.95-32 69.7-32L69.7-32 63.95-32ZM60.55 0L55.45 0 55.45-2.05Q55.45-2.5 55.65-2.78 55.85-3.05 56.25-3.1L56.25-3.1 60-3.9 60.55 0ZM55.45-35.85L60.55-35.85 60-31.95 56.25-32.75Q55.85-32.85 55.65-33.1 55.45-33.35 55.45-33.8L55.45-33.8 55.45-35.85ZM67.55 0L62.45 0 63-3.9 66.75-3.1Q67.15-3.05 67.35-2.78 67.55-2.5 67.55-2.05L67.55-2.05 67.55 0ZM111.64 0L89.54 0 89.54-35.85 111.64-35.85 111.64-31.9 94.44-31.9 94.44-19.95 107.64-19.95 107.64-16.15 94.44-16.15 94.44-3.95 111.64-3.95 111.64 0ZM111.64-3.95L107.54-2.7 108.29-7.7Q108.39-8.15 108.67-8.33 108.94-8.5 109.34-8.5L109.34-8.5 111.64-8.5 111.64-3.95ZM108.29-28.15L107.54-33.15 111.64-31.9 111.64-27.35 109.34-27.35Q108.94-27.35 108.67-27.53 108.39-27.7 108.29-28.15L108.29-28.15ZM85.94-35.85L91.04-35.85 90.49-31.95 86.74-32.75Q86.34-32.85 86.14-33.1 85.94-33.35 85.94-33.8L85.94-33.8 85.94-35.85ZM91.04 0L85.94 0 85.94-2.05Q85.94-2.5 86.14-2.78 86.34-3.05 86.74-3.1L86.74-3.1 90.49-3.9 91.04 0Z" opacity="1" transform="matrix(1,0,0,1,0,0)" fill="#000000" class="wordmark-text-0" data-fill-palette-color="primary" id="text-0"></path></svg></g></svg></g></svg></g></svg></g><g><svg viewBox="0 0 209.9239751687412 178.14472494545456" height="178.14472494545456" width="209.9239751687412"><g><svg xmlns="http://www.w3.org/2000/svg" xmlns:xlink="http://www.w3.org/1999/xlink" version="1.1" x="0" y="0" viewBox="21.620462297460303 38.8 225.7795377025397 191.60000000000002" style="enable-background:new 0 0 269.3 269.3;" xml:space="preserve" height="178.14472494545456" width="209.9239751687412" class="icon-icon-0" data-fill-palette-color="accent" id="icon-0"><path d="M121.4 39.2C109.6 38.8 97.8 40.5 86.6 44.3 67 50.9 40 66.8 23.1 105.7 19.5 113.2 22.7 122.1 30.2 125.7S46.6 126.1 50.2 118.6C50.4 118.3 50.5 117.9 50.6 117.6 53.6 110.6 57.4 103.9 62 97.8 61.9 99.2 61.8 100.6 61.8 102.1 61.7 120.5 69.8 137.9 83.8 149.8L105.2 128.4C90.7 117.8 87.5 97.4 98.1 82.9S129.1 65.2 143.6 75.8 161.3 106.8 150.7 121.3C147.3 126 142.7 129.7 137.3 132 129.8 135.5 126.6 144.5 130.2 152 133.6 159.1 141.9 162.4 149.2 159.5 157 156.1 164 151.2 169.8 145.1L206.3 111.6H247.3V38.8z" fill="#0c38ec" data-fill-palette-color="accent"></path><path d="M169.5 219.1L200 188.6 166.1 154.7C161.5 158.3 156.5 161.3 151.1 163.6 148.7 164.7 146 165.2 143.4 165.2 132.6 165.2 123.9 156.5 123.9 145.7 123.9 137.9 128.5 130.9 135.7 127.8L138.1 126.6 125.4 114 50.8 188.6 81.3 219.1H21.9V230.4H247.4V219.1zM113.8 183.4L121.4 191 136.9 175.4 142.9 181.4 121.4 203 107.8 189.4z" fill="#0c38ec" data-fill-palette-color="accent"></path></svg></g></svg></g></svg></g><defs></defs></svg><rect width="395.52" height="110.80762757725712" fill="none" stroke="none" visibility="hidden"></rect></g></svg></g></svg>